<svg viewBox="0 0 1200 620" xmlns="http://www.w3.org/2000/svg" role="img" aria-label="blog-hero">
<rect width="1200" height="620" fill="#fdf1e8"/>
<rect x="0" y="446.4" width="1200" height="173.60000000000002" fill="#f6d9c0" opacity=".55"/>
<rect x="72.0" y="62.0" width="408.00000000000006" height="210.8" rx="6" fill="none" stroke="#ffffff" stroke-opacity=".55" stroke-width="3"/><line x1="208.00000000000003" y1="62.0" x2="208.00000000000003" y2="272.8" stroke="#ffffff" stroke-opacity=".55" stroke-width="2"/><line x1="344.00000000000006" y1="62.0" x2="344.00000000000006" y2="272.8" stroke="#ffffff" stroke-opacity=".55" stroke-width="2"/><line x1="72.0" y1="167.4" x2="480.00000000000006" y2="167.4" stroke="#ffffff" stroke-opacity=".55" stroke-width="2"/>
<rect x="720.0" y="49.6" width="408.00000000000006" height="186.0" rx="6" fill="none" stroke="#ffffff" stroke-opacity=".55" stroke-width="3"/><line x1="856.0" y1="49.6" x2="856.0" y2="235.6" stroke="#ffffff" stroke-opacity=".55" stroke-width="2"/><line x1="992.0" y1="49.6" x2="992.0" y2="235.6" stroke="#ffffff" stroke-opacity=".55" stroke-width="2"/><line x1="720.0" y1="142.6" x2="1128.0" y2="142.6" stroke="#ffffff" stroke-opacity=".55" stroke-width="2"/>

    <g transform="translate(420.0,372.0) scale(1.3)">
      <rect x="-46" y="10" width="92" height="10" rx="4" fill="#c17a45"/>
      <rect x="-40" y="20" width="6" height="26" fill="#c17a45" opacity=".7"/>
      <rect x="34" y="20" width="6" height="26" fill="#c17a45" opacity=".7"/>
      <rect x="-20" y="-6" width="34" height="20" rx="3" fill="#fdf1e8" stroke="#eab488" stroke-width="2"/>
      <circle cx="18" cy="34" r="16" fill="#eab488"/>
      <rect x="6" y="20" width="24" height="20" rx="8" fill="#c17a45"/>
    </g>

    <g transform="translate(816.0000000000001,384.4) scale(1.3)">
      <rect x="-46" y="10" width="92" height="10" rx="4" fill="#c17a45"/>
      <rect x="-40" y="20" width="6" height="26" fill="#c17a45" opacity=".7"/>
      <rect x="34" y="20" width="6" height="26" fill="#c17a45" opacity=".7"/>
      <rect x="-20" y="-6" width="34" height="20" rx="3" fill="#fdf1e8" stroke="#eab488" stroke-width="2"/>
      <circle cx="18" cy="34" r="16" fill="#eab488"/>
      <rect x="6" y="20" width="24" height="20" rx="8" fill="#c17a45"/>
    </g>

    <g transform="translate(1104.0,446.4) scale(1.0)">
      <rect x="-16" y="20" width="32" height="26" rx="6" fill="#c17a45"/>
      <path d="M0 20 C -30 10 -34 -30 -6 -34 C -2 -10 0 4 0 20 Z" fill="#eab488"/>
      <path d="M0 20 C 26 8 30 -26 4 -30 C 2 -8 0 4 0 20 Z" fill="#eab488" opacity=".85"/>
      <path d="M0 20 C -6 -2 -4 -20 0 -34 C 4 -20 6 -2 0 20 Z" fill="#c17a45"/>
    </g>
<circle cx="1080.0" cy="62.0" r="86.80000000000001" fill="#eab488" opacity=".12"/>
<circle cx="96.0" cy="74.39999999999999" r="55.8" fill="#c17a45" opacity=".12"/>
</svg>