<svg viewBox="0 0 800 560" xmlns="http://www.w3.org/2000/svg" role="img" aria-label="blog-4">
<rect width="800" height="560" fill="#fdf1e8"/>
<rect x="0" y="403.2" width="800" height="156.8" fill="#f6d9c0" opacity=".55"/>
<rect x="48.0" y="56.0" width="272.0" height="190.4" rx="6" fill="none" stroke="#ffffff" stroke-opacity=".55" stroke-width="3"/><line x1="138.66666666666669" y1="56.0" x2="138.66666666666669" y2="246.4" stroke="#ffffff" stroke-opacity=".55" stroke-width="2"/><line x1="229.33333333333334" y1="56.0" x2="229.33333333333334" y2="246.4" stroke="#ffffff" stroke-opacity=".55" stroke-width="2"/><line x1="48.0" y1="151.2" x2="320.0" y2="151.2" stroke="#ffffff" stroke-opacity=".55" stroke-width="2"/>
<rect x="480.0" y="44.800000000000004" width="272.0" height="168.0" rx="6" fill="none" stroke="#ffffff" stroke-opacity=".55" stroke-width="3"/><line x1="570.6666666666666" y1="44.800000000000004" x2="570.6666666666666" y2="212.8" stroke="#ffffff" stroke-opacity=".55" stroke-width="2"/><line x1="661.3333333333334" y1="44.800000000000004" x2="661.3333333333334" y2="212.8" stroke="#ffffff" stroke-opacity=".55" stroke-width="2"/><line x1="480.0" y1="128.8" x2="752.0" y2="128.8" stroke="#ffffff" stroke-opacity=".55" stroke-width="2"/>

    <g transform="translate(280.0,336.0) scale(1.3)">
      <rect x="-46" y="10" width="92" height="10" rx="4" fill="#c17a45"/>
      <rect x="-40" y="20" width="6" height="26" fill="#c17a45" opacity=".7"/>
      <rect x="34" y="20" width="6" height="26" fill="#c17a45" opacity=".7"/>
      <rect x="-20" y="-6" width="34" height="20" rx="3" fill="#fdf1e8" stroke="#eab488" stroke-width="2"/>
      <circle cx="18" cy="34" r="16" fill="#eab488"/>
      <rect x="6" y="20" width="24" height="20" rx="8" fill="#c17a45"/>
    </g>

    <g transform="translate(544.0,347.2) scale(1.3)">
      <rect x="-46" y="10" width="92" height="10" rx="4" fill="#c17a45"/>
      <rect x="-40" y="20" width="6" height="26" fill="#c17a45" opacity=".7"/>
      <rect x="34" y="20" width="6" height="26" fill="#c17a45" opacity=".7"/>
      <rect x="-20" y="-6" width="34" height="20" rx="3" fill="#fdf1e8" stroke="#eab488" stroke-width="2"/>
      <circle cx="18" cy="34" r="16" fill="#eab488"/>
      <rect x="6" y="20" width="24" height="20" rx="8" fill="#c17a45"/>
    </g>

    <g transform="translate(736.0,403.2) scale(1.0)">
      <rect x="-16" y="20" width="32" height="26" rx="6" fill="#c17a45"/>
      <path d="M0 20 C -30 10 -34 -30 -6 -34 C -2 -10 0 4 0 20 Z" fill="#eab488"/>
      <path d="M0 20 C 26 8 30 -26 4 -30 C 2 -8 0 4 0 20 Z" fill="#eab488" opacity=".85"/>
      <path d="M0 20 C -6 -2 -4 -20 0 -34 C 4 -20 6 -2 0 20 Z" fill="#c17a45"/>
    </g>
<circle cx="720.0" cy="56.0" r="78.4" fill="#eab488" opacity=".12"/>
<circle cx="64.0" cy="67.2" r="50.4" fill="#c17a45" opacity=".12"/>
</svg>