<svg viewBox="0 0 1200 700" xmlns="http://www.w3.org/2000/svg" role="img" aria-label="membership-hero">
<rect width="1200" height="700" fill="#efeaf9"/>
<rect x="0" y="504.0" width="1200" height="196.00000000000003" fill="#d3c5f0" opacity=".55"/>
<rect x="72.0" y="70.0" width="408.00000000000006" height="238.00000000000003" rx="6" fill="none" stroke="#ffffff" stroke-opacity=".55" stroke-width="3"/><line x1="208.00000000000003" y1="70.0" x2="208.00000000000003" y2="308.0" stroke="#ffffff" stroke-opacity=".55" stroke-width="2"/><line x1="344.00000000000006" y1="70.0" x2="344.00000000000006" y2="308.0" stroke="#ffffff" stroke-opacity=".55" stroke-width="2"/><line x1="72.0" y1="189.0" x2="480.00000000000006" y2="189.0" stroke="#ffffff" stroke-opacity=".55" stroke-width="2"/>
<rect x="720.0" y="56.0" width="408.00000000000006" height="210.0" rx="6" fill="none" stroke="#ffffff" stroke-opacity=".55" stroke-width="3"/><line x1="856.0" y1="56.0" x2="856.0" y2="266.0" stroke="#ffffff" stroke-opacity=".55" stroke-width="2"/><line x1="992.0" y1="56.0" x2="992.0" y2="266.0" stroke="#ffffff" stroke-opacity=".55" stroke-width="2"/><line x1="720.0" y1="161.0" x2="1128.0" y2="161.0" stroke="#ffffff" stroke-opacity=".55" stroke-width="2"/>

    <g transform="translate(432.0,462.0) scale(1.5)">
      <rect x="-60" y="0" width="120" height="34" rx="14" fill="#b7a6e8"/>
      <rect x="-60" y="-22" width="120" height="26" rx="12" fill="#7a63c4"/>
      <circle cx="-42" cy="18" r="12" fill="#7a63c4" opacity=".9"/>
      <circle cx="10" cy="18" r="12" fill="#7a63c4" opacity=".9"/>
      <rect x="-66" y="-6" width="14" height="40" rx="7" fill="#b7a6e8"/>
      <rect x="52" y="-6" width="14" height="40" rx="7" fill="#b7a6e8"/>
    </g>

    <g transform="translate(1020.0,476.00000000000006) scale(1.4)">
      <rect x="-16" y="20" width="32" height="26" rx="6" fill="#7a63c4"/>
      <path d="M0 20 C -30 10 -34 -30 -6 -34 C -2 -10 0 4 0 20 Z" fill="#b7a6e8"/>
      <path d="M0 20 C 26 8 30 -26 4 -30 C 2 -8 0 4 0 20 Z" fill="#b7a6e8" opacity=".85"/>
      <path d="M0 20 C -6 -2 -4 -20 0 -34 C 4 -20 6 -2 0 20 Z" fill="#7a63c4"/>
    </g>
<circle cx="756.0" cy="546.0" r="26" fill="#7a63c4" opacity=".5"/>
<circle cx="1080.0" cy="70.0" r="98.00000000000001" fill="#b7a6e8" opacity=".12"/>
<circle cx="96.0" cy="84.0" r="63.0" fill="#7a63c4" opacity=".12"/>
</svg>