<svg viewBox="0 0 900 650" xmlns="http://www.w3.org/2000/svg" role="img" aria-label="room-private">
<rect width="900" height="650" fill="#e6f0ea"/>
<rect x="0" y="468.0" width="900" height="182.00000000000003" fill="#bcd6c6" opacity=".55"/>
<rect x="54.0" y="65.0" width="306.0" height="221.00000000000003" rx="6" fill="none" stroke="#ffffff" stroke-opacity=".55" stroke-width="3"/><line x1="156.0" y1="65.0" x2="156.0" y2="286.0" stroke="#ffffff" stroke-opacity=".55" stroke-width="2"/><line x1="258.0" y1="65.0" x2="258.0" y2="286.0" stroke="#ffffff" stroke-opacity=".55" stroke-width="2"/><line x1="54.0" y1="175.5" x2="360.0" y2="175.5" stroke="#ffffff" stroke-opacity=".55" stroke-width="2"/>
<rect x="540.0" y="52.0" width="306.0" height="195.0" rx="6" fill="none" stroke="#ffffff" stroke-opacity=".55" stroke-width="3"/><line x1="642.0" y1="52.0" x2="642.0" y2="247.0" stroke="#ffffff" stroke-opacity=".55" stroke-width="2"/><line x1="744.0" y1="52.0" x2="744.0" y2="247.0" stroke="#ffffff" stroke-opacity=".55" stroke-width="2"/><line x1="540.0" y1="149.5" x2="846.0" y2="149.5" stroke="#ffffff" stroke-opacity=".55" stroke-width="2"/>

    <g transform="translate(450.0,403.0) scale(1.5)">
      <rect x="-46" y="10" width="92" height="10" rx="4" fill="#3d5f51"/>
      <rect x="-40" y="20" width="6" height="26" fill="#3d5f51" opacity=".7"/>
      <rect x="34" y="20" width="6" height="26" fill="#3d5f51" opacity=".7"/>
      <rect x="-20" y="-6" width="34" height="20" rx="3" fill="#e6f0ea" stroke="#6f9c85" stroke-width="2"/>
      <circle cx="18" cy="34" r="16" fill="#6f9c85"/>
      <rect x="6" y="20" width="24" height="20" rx="8" fill="#3d5f51"/>
    </g>

    <g transform="translate(792.0,429.0) scale(1.3)">
      <rect x="-16" y="20" width="32" height="26" rx="6" fill="#3d5f51"/>
      <path d="M0 20 C -30 10 -34 -30 -6 -34 C -2 -10 0 4 0 20 Z" fill="#6f9c85"/>
      <path d="M0 20 C 26 8 30 -26 4 -30 C 2 -8 0 4 0 20 Z" fill="#6f9c85" opacity=".85"/>
      <path d="M0 20 C -6 -2 -4 -20 0 -34 C 4 -20 6 -2 0 20 Z" fill="#3d5f51"/>
    </g>

    <g transform="translate(90.0,454.99999999999994) scale(1.0)">
      <rect x="-16" y="20" width="32" height="26" rx="6" fill="#3d5f51"/>
      <path d="M0 20 C -30 10 -34 -30 -6 -34 C -2 -10 0 4 0 20 Z" fill="#6f9c85"/>
      <path d="M0 20 C 26 8 30 -26 4 -30 C 2 -8 0 4 0 20 Z" fill="#6f9c85" opacity=".85"/>
      <path d="M0 20 C -6 -2 -4 -20 0 -34 C 4 -20 6 -2 0 20 Z" fill="#3d5f51"/>
    </g>
<circle cx="810.0" cy="65.0" r="91.00000000000001" fill="#6f9c85" opacity=".12"/>
<circle cx="72.0" cy="78.0" r="58.5" fill="#3d5f51" opacity=".12"/>
</svg>