<svg viewBox="0 0 900 650" xmlns="http://www.w3.org/2000/svg" role="img" aria-label="room-event">
<rect width="900" height="650" fill="#e6f0ea"/>
<rect x="0" y="468.0" width="900" height="182.00000000000003" fill="#bcd6c6" opacity=".55"/>
<rect x="54.0" y="65.0" width="306.0" height="221.00000000000003" rx="6" fill="none" stroke="#ffffff" stroke-opacity=".55" stroke-width="3"/><line x1="156.0" y1="65.0" x2="156.0" y2="286.0" stroke="#ffffff" stroke-opacity=".55" stroke-width="2"/><line x1="258.0" y1="65.0" x2="258.0" y2="286.0" stroke="#ffffff" stroke-opacity=".55" stroke-width="2"/><line x1="54.0" y1="175.5" x2="360.0" y2="175.5" stroke="#ffffff" stroke-opacity=".55" stroke-width="2"/>
<rect x="540.0" y="52.0" width="306.0" height="195.0" rx="6" fill="none" stroke="#ffffff" stroke-opacity=".55" stroke-width="3"/><line x1="642.0" y1="52.0" x2="642.0" y2="247.0" stroke="#ffffff" stroke-opacity=".55" stroke-width="2"/><line x1="744.0" y1="52.0" x2="744.0" y2="247.0" stroke="#ffffff" stroke-opacity=".55" stroke-width="2"/><line x1="540.0" y1="149.5" x2="846.0" y2="149.5" stroke="#ffffff" stroke-opacity=".55" stroke-width="2"/>

    <g transform="translate(198.0,364.00000000000006) scale(1.05)">
      <circle cx="-70" cy="-34" r="10" fill="#3d5f51" opacity=".8"/><circle cx="-70" cy="34" r="10" fill="#3d5f51" opacity=".8"/><circle cx="-35" cy="-34" r="10" fill="#3d5f51" opacity=".8"/><circle cx="-35" cy="34" r="10" fill="#3d5f51" opacity=".8"/><circle cx="0" cy="-34" r="10" fill="#3d5f51" opacity=".8"/><circle cx="0" cy="34" r="10" fill="#3d5f51" opacity=".8"/><circle cx="35" cy="-34" r="10" fill="#3d5f51" opacity=".8"/><circle cx="35" cy="34" r="10" fill="#3d5f51" opacity=".8"/><circle cx="70" cy="-34" r="10" fill="#3d5f51" opacity=".8"/><circle cx="70" cy="34" r="10" fill="#3d5f51" opacity=".8"/>
      <rect x="-86" y="-14" width="172" height="28" rx="10" fill="#6f9c85"/>
    </g>

    <g transform="translate(450.0,364.00000000000006) scale(1.05)">
      <circle cx="-70" cy="-34" r="10" fill="#3d5f51" opacity=".8"/><circle cx="-70" cy="34" r="10" fill="#3d5f51" opacity=".8"/><circle cx="-35" cy="-34" r="10" fill="#3d5f51" opacity=".8"/><circle cx="-35" cy="34" r="10" fill="#3d5f51" opacity=".8"/><circle cx="0" cy="-34" r="10" fill="#3d5f51" opacity=".8"/><circle cx="0" cy="34" r="10" fill="#3d5f51" opacity=".8"/><circle cx="35" cy="-34" r="10" fill="#3d5f51" opacity=".8"/><circle cx="35" cy="34" r="10" fill="#3d5f51" opacity=".8"/><circle cx="70" cy="-34" r="10" fill="#3d5f51" opacity=".8"/><circle cx="70" cy="34" r="10" fill="#3d5f51" opacity=".8"/>
      <rect x="-86" y="-14" width="172" height="28" rx="10" fill="#6f9c85"/>
    </g>

    <g transform="translate(702.0,364.00000000000006) scale(1.05)">
      <circle cx="-70" cy="-34" r="10" fill="#3d5f51" opacity=".8"/><circle cx="-70" cy="34" r="10" fill="#3d5f51" opacity=".8"/><circle cx="-35" cy="-34" r="10" fill="#3d5f51" opacity=".8"/><circle cx="-35" cy="34" r="10" fill="#3d5f51" opacity=".8"/><circle cx="0" cy="-34" r="10" fill="#3d5f51" opacity=".8"/><circle cx="0" cy="34" r="10" fill="#3d5f51" opacity=".8"/><circle cx="35" cy="-34" r="10" fill="#3d5f51" opacity=".8"/><circle cx="35" cy="34" r="10" fill="#3d5f51" opacity=".8"/><circle cx="70" cy="-34" r="10" fill="#3d5f51" opacity=".8"/><circle cx="70" cy="34" r="10" fill="#3d5f51" opacity=".8"/>
      <rect x="-86" y="-14" width="172" height="28" rx="10" fill="#6f9c85"/>
    </g>
<circle cx="810.0" cy="65.0" r="91.00000000000001" fill="#6f9c85" opacity=".12"/>
<circle cx="72.0" cy="78.0" r="58.5" fill="#3d5f51" opacity=".12"/>
</svg>